<svg xmlns="http://www.w3.org/2000/svg" version="1.1" xmlns:xlink="http://www.w3.org/1999/xlink" xmlns:svgjs="http://svgjs.dev/svgjs" width="1000" height="265" viewBox="0 0 1000 265"><g transform="matrix(1,0,0,1,-0.6060605021614265,0.213009186926314)"><svg viewBox="0 0 396 105" data-background-color="#ffffff" preserveAspectRatio="xMidYMid meet" height="265" width="1000" xmlns="http://www.w3.org/2000/svg" xmlns:xlink="http://www.w3.org/1999/xlink"><g id="tight-bounds" transform="matrix(1,0,0,1,0.24000004114418516,-0.08439986651796971)"><svg viewBox="0 0 395.52 105.16879973303593" height="105.16879973303593" width="395.52"><g><svg viewBox="0 0 574.3174697550332 152.71106128603108" height="105.16879973303593" width="395.52"><g transform="matrix(1,0,0,1,0,21.105508470066532)"><svg viewBox="0 0 395.52 110.50004434589802" height="110.50004434589802" width="395.52"><g><svg viewBox="0 0 395.52 110.50004434589802" height="110.50004434589802" width="395.52" id="textblock"><g><svg viewBox="0 0 395.52 110.50004434589802" height="110.50004434589802" width="395.52"><g transform="matrix(1,0,0,1,0,0)"><svg width="395.52" viewBox="2.450000047683716 -33.599998474121094 157.83999633789062 44.099998474121094" height="110.50004434589802" data-palette-color="#010c80"><path d="M2.45-32.5L2.45-33 9.6-33 9.6-32.5 9.35-32.5Q9-32.5 8.7-32.23 8.4-31.95 8.2-31.58 8-31.2 7.88-30.73 7.75-30.25 7.75-29.9L7.75-29.9 7.75-3.25Q7.75-2.85 7.85-2.38 7.95-1.9 8.18-1.5 8.4-1.1 8.68-0.8 8.95-0.5 9.35-0.5L9.35-0.5 9.6-0.5 9.6 0 2.45 0 2.45-0.5 2.7-0.5Q3.1-0.5 3.4-0.78 3.7-1.05 3.93-1.48 4.15-1.9 4.25-2.38 4.35-2.85 4.35-3.25L4.35-3.25 4.35-29.9Q4.35-30.25 4.25-30.7 4.15-31.15 3.93-31.55 3.7-31.95 3.4-32.23 3.1-32.5 2.7-32.5L2.7-32.5 2.45-32.5ZM41.3 0L41.3-0.5 41.55-0.5Q41.9-0.5 42.2-0.8 42.5-1.1 42.72-1.5 42.95-1.9 43.05-2.38 43.15-2.85 43.15-3.25L43.15-3.25 43.15-29.55 30.25 0.55 18-28 18-3.25Q18-2.85 18.1-2.38 18.2-1.9 18.42-1.5 18.65-1.1 18.95-0.8 19.25-0.5 19.65-0.5L19.65-0.5 19.9-0.5 19.9 0 14.45 0 14.45-0.5 14.7-0.5Q15.05-0.5 15.35-0.8 15.65-1.1 15.85-1.5 16.05-1.9 16.15-2.38 16.25-2.85 16.25-3.25L16.25-3.25 16.25-29.9Q16.25-30.25 16.15-30.7 16.05-31.15 15.85-31.55 15.65-31.95 15.35-32.23 15.05-32.5 14.7-32.5L14.7-32.5 14.45-32.5 14.45-33 19.55-33 31.15-5.65 42.75-33 48.4-33 48.4-32.5 48.15-32.5Q47.75-32.5 47.45-32.23 47.15-31.95 46.92-31.55 46.7-31.15 46.6-30.7 46.5-30.25 46.5-29.9L46.5-29.9 46.5-3.25Q46.5-2.85 46.6-2.38 46.7-1.9 46.92-1.5 47.15-1.1 47.45-0.8 47.75-0.5 48.15-0.5L48.15-0.5 48.4-0.5 48.4 0 41.3 0ZM72.34 0L72.34-0.5 72.59-0.5Q73.8-0.5 73.8-1.6L73.8-1.6Q73.8-2 73.65-2.45L73.65-2.45 69.15-14.6 60.4-14.6 56.05-2.65Q55.9-2.25 55.9-1.9L55.9-1.9Q55.9-1.25 56.25-0.88 56.6-0.5 57-0.5L57-0.5 57.25-0.5 57.25 0 51.7 0 51.7-0.5 51.95-0.5Q52.6-0.5 53.22-1.28 53.85-2.05 54.25-3.1L54.25-3.1 65.7-33.6 76.9-3.4Q77.25-2.4 77.87-1.45 78.5-0.5 79.5-0.5L79.5-0.5 79.75-0.5 79.75 0 72.34 0ZM64.75-26.75L60.9-16.3 68.59-16.3 64.75-26.75ZM84.24-32.5L84.24-33 91.44-33 91.44-32.5 91.19-32.5Q90.79-32.5 90.49-32.23 90.19-31.95 89.97-31.53 89.74-31.1 89.62-30.65 89.49-30.2 89.49-29.85L89.49-29.85 89.49-2Q89.49-0.4 89.09 0.95 88.69 2.3 88.02 3.48 87.34 4.65 86.52 5.63 85.69 6.6 84.79 7.4L84.79 7.4Q82.74 9.25 80.09 10.5L80.09 10.5 79.84 10.1Q81.59 8.85 82.94 7.15L82.94 7.15Q84.09 5.7 85.09 3.6 86.09 1.5 86.09-1.25L86.09-1.25 86.09-29.85Q86.09-30.2 85.99-30.65 85.89-31.1 85.67-31.53 85.44-31.95 85.14-32.23 84.84-32.5 84.49-32.5L84.49-32.5 84.24-32.5ZM96.44-32.5L96.44-33 103.59-33 103.59-32.5 103.34-32.5Q102.99-32.5 102.69-32.23 102.39-31.95 102.19-31.58 101.99-31.2 101.87-30.73 101.74-30.25 101.74-29.9L101.74-29.9 101.74-3.25Q101.74-2.85 101.84-2.38 101.94-1.9 102.17-1.5 102.39-1.1 102.67-0.8 102.94-0.5 103.34-0.5L103.34-0.5 103.59-0.5 103.59 0 96.44 0 96.44-0.5 96.69-0.5Q97.09-0.5 97.39-0.78 97.69-1.05 97.92-1.48 98.14-1.9 98.24-2.38 98.34-2.85 98.34-3.25L98.34-3.25 98.34-29.9Q98.34-30.25 98.24-30.7 98.14-31.15 97.92-31.55 97.69-31.95 97.39-32.23 97.09-32.5 96.69-32.5L96.69-32.5 96.44-32.5ZM113.64-0.5L113.64-0.5 113.89-0.5 113.89 0 108.34 0 108.34-0.5 108.59-0.5Q108.94-0.5 109.26-0.8 109.59-1.1 109.79-1.5 109.99-1.9 110.11-2.38 110.24-2.85 110.24-3.25L110.24-3.25 110.24-29.9Q110.24-30.25 110.16-30.7 110.09-31.15 109.89-31.55 109.69-31.95 109.34-32.23 108.99-32.5 108.49-32.5L108.49-32.5 108.24-32.5 108.24-33 113.29-33 131.44-4.4 131.44-29.9Q131.44-30.25 131.31-30.7 131.19-31.15 130.96-31.55 130.74-31.95 130.44-32.23 130.14-32.5 129.74-32.5L129.74-32.5 129.49-32.5 129.49-33 135.09-33 135.09-32.5 134.84-32.5Q134.44-32.5 134.14-32.23 133.84-31.95 133.61-31.55 133.39-31.15 133.29-30.7 133.19-30.25 133.19-29.9L133.19-29.9 133.19 0 130.09 0 111.99-28.7 111.99-3.25Q111.99-2.85 112.09-2.38 112.19-1.9 112.41-1.5 112.64-1.1 112.94-0.8 113.24-0.5 113.64-0.5ZM139.79 0L139.79-0.5 140.04-0.5Q140.44-0.5 140.74-0.78 141.04-1.05 141.26-1.45 141.49-1.85 141.61-2.3 141.74-2.75 141.74-3.15L141.74-3.15 141.74-29.9Q141.74-30.25 141.61-30.7 141.49-31.15 141.26-31.55 141.04-31.95 140.74-32.23 140.44-32.5 140.04-32.5L140.04-32.5 139.79-32.5 139.79-33 159.04-33 159.04-28.35 158.54-28.35Q158.44-29.5 157.64-30.38 156.84-31.25 155.14-31.25L155.14-31.25 145.09-31.25 145.09-18.6 153.39-18.6Q154.54-18.6 155.31-19.3 156.09-20 156.09-20.95L156.09-20.95 156.59-20.95 156.59-14.7 156.09-14.7Q156.09-15.6 155.34-16.25 154.59-16.9 153.39-16.9L153.39-16.9 145.09-16.9 145.09-1.75 156.04-1.75Q156.99-1.75 157.69-2.2 158.39-2.65 158.86-3.28 159.34-3.9 159.56-4.63 159.79-5.35 159.79-5.85L159.79-5.85 160.29-5.85 160.29 0 139.79 0Z" opacity="1" transform="matrix(1,0,0,1,0,0)" fill="#010c80" class="undefined-text-0" data-fill-palette-color="primary" id="text-0"></path></svg></g></svg></g></svg></g></svg></g><g transform="matrix(1,0,0,1,421.6064084690022,0)"><svg viewBox="0 0 152.71106128603108 152.71106128603108" height="152.71106128603108" width="152.71106128603108"><g data-palette-color="#010c80"><rect width="41.74102341818183" height="152.71106128603108" fill="#010c80" stroke="transparent" data-fill-palette-color="accent" x="0" fill-opacity="1"></rect><rect width="41.74102341818183" height="152.71106128603108" fill="#010c80" stroke="transparent" data-fill-palette-color="accent" x="50.9036870953437" fill-opacity="0.75"></rect><rect width="41.74102341818183" height="152.71106128603108" fill="#010c80" stroke="transparent" data-fill-palette-color="accent" x="101.8073741906874" fill-opacity="0.5"></rect></g></svg></g></svg></g><defs></defs></svg><rect width="395.52" height="105.16879973303593" fill="none" stroke="none" visibility="hidden"></rect></g></svg></g></svg>