<svg xmlns="http://www.w3.org/2000/svg" xmlns:xlink="http://www.w3.org/1999/xlink" width="550" zoomAndPan="magnify" viewBox="0 0 412.5 223.499994" height="298" preserveAspectRatio="xMidYMid meet" version="1.0"><defs><g/><clipPath id="80fcd1e836"><path d="M 0.210938 0 L 411.789062 0 L 411.789062 223 L 0.210938 223 Z M 0.210938 0 " clip-rule="nonzero"/></clipPath><clipPath id="981a14b04f"><path d="M 75.375 75.636719 L 336.855469 75.636719 L 336.855469 147.5625 L 75.375 147.5625 Z M 75.375 75.636719 " clip-rule="nonzero"/></clipPath><clipPath id="3ac8009d81"><path d="M 82.4375 82.402344 L 206.082031 82.402344 L 206.082031 140.867188 L 82.4375 140.867188 Z M 82.4375 82.402344 " clip-rule="nonzero"/></clipPath></defs><g clip-path="url(#80fcd1e836)"><path fill="#ffffff" d="M 0.210938 0 L 412.289062 0 L 412.289062 230.015625 L 0.210938 230.015625 Z M 0.210938 0 " fill-opacity="1" fill-rule="nonzero"/><path fill="#ffffff" d="M 0.210938 0 L 412.289062 0 L 412.289062 223.269531 L 0.210938 223.269531 Z M 0.210938 0 " fill-opacity="1" fill-rule="nonzero"/></g><g clip-path="url(#981a14b04f)"><path stroke-linecap="butt" transform="matrix(0.749434, 0, 0, 0.748502, 75.373251, 75.638005)" fill="none" stroke-linejoin="miter" d="M 0.00233442 -0.00171892 L 348.906183 -0.00171892 L 348.906183 96.091263 L 0.00233442 96.091263 L 0.00233442 -0.00171892 " stroke="#000000" stroke-width="6" stroke-opacity="1" stroke-miterlimit="4"/></g><g clip-path="url(#3ac8009d81)"><path fill="#032074" d="M 82.4375 82.402344 L 206.785156 82.402344 L 206.785156 141.46875 L 82.4375 141.46875 Z M 82.4375 82.402344 " fill-opacity="1" fill-rule="nonzero"/></g><g fill="#ffffff" fill-opacity="1"><g transform="translate(129.392477, 120.744644)"><g><path d="M 0.476562 0 L 3.113281 0 L 4.910156 -4.460938 L 14.476562 -4.460938 L 16.332031 0 L 18.941406 0 L 10.859375 -19.640625 L 8.558594 -19.640625 Z M 5.863281 -6.761719 L 9.707031 -16.191406 L 13.550781 -6.761719 Z M 5.863281 -6.761719 "/></g></g></g><g fill="#ffffff" fill-opacity="1"><g transform="translate(150.935249, 120.744644)"><g><path d="M 2.863281 0 L 5.332031 0 L 5.332031 -19.640625 L 2.863281 -19.640625 Z M 2.863281 0 "/></g></g></g><g fill="#000000" fill-opacity="1"><g transform="translate(215.014305, 120.895741)"><g><path d="M 9.117188 0.421875 C 14 0.421875 16.890625 -1.878906 16.890625 -5.75 C 16.890625 -9.007812 14.785156 -10.914062 10.015625 -11.980469 C 7.492188 -12.542969 6.566406 -13.160156 6.566406 -14.167969 C 6.566406 -15.125 7.40625 -15.710938 8.726562 -15.710938 C 10.296875 -15.710938 11.195312 -14.898438 11.195312 -13.410156 L 16.527344 -13.410156 C 16.527344 -17.453125 13.441406 -20.0625 8.613281 -20.0625 C 3.984375 -20.0625 1.121094 -17.761719 1.121094 -14.058594 C 1.121094 -10.746094 3.28125 -8.699219 7.714844 -7.855469 C 10.101562 -7.378906 11.25 -6.648438 11.25 -5.527344 C 11.25 -4.546875 10.410156 -3.984375 9.035156 -3.984375 C 7.40625 -3.984375 6.453125 -4.855469 6.453125 -6.371094 L 0.980469 -6.371094 C 0.980469 -2.132812 4.011719 0.421875 9.117188 0.421875 Z M 9.117188 0.421875 "/></g></g></g><g fill="#000000" fill-opacity="1"><g transform="translate(232.942277, 120.895741)"><g><path d="M 6.761719 0 L 12.402344 0 L 12.402344 -14.394531 L 18.378906 -14.394531 L 18.378906 -19.640625 L 0.785156 -19.640625 L 0.785156 -14.394531 L 6.761719 -14.394531 Z M 6.761719 0 "/></g></g></g><g fill="#000000" fill-opacity="1"><g transform="translate(252.104723, 120.895741)"><g><path d="M 10.523438 0.421875 C 15.824219 0.421875 19.109375 -2.804688 19.109375 -8.082031 L 19.109375 -19.640625 L 13.46875 -19.640625 L 13.46875 -8.445312 C 13.46875 -6.117188 12.484375 -4.882812 10.523438 -4.882812 C 8.558594 -4.882812 7.574219 -6.117188 7.574219 -8.445312 L 7.574219 -19.640625 L 1.90625 -19.640625 L 1.90625 -8.082031 C 1.90625 -2.804688 5.21875 0.421875 10.523438 0.421875 Z M 10.523438 0.421875 "/></g></g></g><g fill="#000000" fill-opacity="1"><g transform="translate(273.146946, 120.895741)"><g><path d="M 2.078125 0 L 10.410156 0 C 16.75 0 20.960938 -3.898438 20.960938 -9.820312 C 20.960938 -15.710938 16.75 -19.640625 10.410156 -19.640625 L 2.078125 -19.640625 Z M 7.742188 -5.078125 L 7.742188 -14.5625 L 10.242188 -14.5625 C 13.242188 -14.5625 15.179688 -12.710938 15.179688 -9.820312 C 15.179688 -6.929688 13.242188 -5.078125 10.242188 -5.078125 Z M 7.742188 -5.078125 "/></g></g></g><g fill="#000000" fill-opacity="1"><g transform="translate(295.058903, 120.895741)"><g><path d="M 2.078125 0 L 7.742188 0 L 7.742188 -19.640625 L 2.078125 -19.640625 Z M 2.078125 0 "/></g></g></g><g fill="#000000" fill-opacity="1"><g transform="translate(304.878609, 120.895741)"><g><path d="M 11.644531 0.421875 C 17.902344 0.421875 22.335938 -3.816406 22.335938 -9.820312 C 22.335938 -15.824219 17.902344 -20.0625 11.644531 -20.0625 C 5.386719 -20.0625 0.953125 -15.824219 0.953125 -9.820312 C 0.953125 -3.816406 5.386719 0.421875 11.644531 0.421875 Z M 6.707031 -9.820312 C 6.707031 -12.765625 8.753906 -14.816406 11.644531 -14.816406 C 14.5625 -14.816406 16.582031 -12.765625 16.582031 -9.820312 C 16.582031 -6.875 14.5625 -4.824219 11.644531 -4.824219 C 8.753906 -4.824219 6.707031 -6.875 6.707031 -9.820312 Z M 6.707031 -9.820312 "/></g></g></g></svg>